<mxfile host="65bd71144e">
    <diagram id="ale4mmEAfaDBNGsSGyDc" name="Control Flow">
        <mxGraphModel dx="1438" dy="1374" grid="0" gridSize="10" guides="1" tooltips="1" connect="1" arrows="1" fold="1" page="0" pageScale="1" pageWidth="850" pageHeight="1100" background="none" math="0" shadow="0">
            <root>
                <object label="" defaultFonts="Lucida Console" id="0">
                    <mxCell/>
                </object>
                <mxCell id="1" parent="0"/>
                <mxCell id="XVa0OCVXgA-f_FIXLsMd-169" style="edgeStyle=orthogonalEdgeStyle;rounded=0;orthogonalLoop=1;jettySize=auto;html=1;exitX=0.5;exitY=1;exitDx=0;exitDy=0;entryX=0.5;entryY=0;entryDx=0;entryDy=0;fontFamily=Lucida Console;fontSize=12;fontColor=default;" parent="1" source="XVa0OCVXgA-f_FIXLsMd-119" target="XVa0OCVXgA-f_FIXLsMd-87" edge="1">
                    <mxGeometry relative="1" as="geometry"/>
                </mxCell>
                <mxCell id="XVa0OCVXgA-f_FIXLsMd-119" value="printer.js" style="whiteSpace=wrap;html=1;rounded=1;shadow=0;glass=0;sketch=1;jiggle=2;curveFitting=1;strokeColor=default;fontFamily=Lucida Console;fontSize=12;fontColor=default;fillColor=none;gradientColor=none;verticalAlign=top;spacing=15;" parent="1" vertex="1">
                    <mxGeometry x="-380" y="10" width="630" height="320" as="geometry"/>
                </mxCell>
                <mxCell id="XVa0OCVXgA-f_FIXLsMd-127" value="layoutBuilder.js" style="whiteSpace=wrap;html=1;rounded=1;shadow=0;glass=0;sketch=1;jiggle=2;curveFitting=1;strokeColor=default;fontFamily=Lucida Console;fontSize=12;fontColor=default;fillColor=none;gradientColor=none;arcSize=3;verticalAlign=top;spacing=15;" parent="1" vertex="1">
                    <mxGeometry x="400" y="20" width="1245" height="2900" as="geometry"/>
                </mxCell>
                <mxCell id="XVa0OCVXgA-f_FIXLsMd-168" style="edgeStyle=orthogonalEdgeStyle;rounded=0;orthogonalLoop=1;jettySize=auto;html=1;entryX=0.5;entryY=0;entryDx=0;entryDy=0;fontFamily=Lucida Console;fontSize=12;fontColor=default;" parent="1" source="XVa0OCVXgA-f_FIXLsMd-82" target="XVa0OCVXgA-f_FIXLsMd-119" edge="1">
                    <mxGeometry relative="1" as="geometry"/>
                </mxCell>
                <mxCell id="XVa0OCVXgA-f_FIXLsMd-82" value="Document&lt;br&gt;Definition" style="ellipse;whiteSpace=wrap;html=1;rounded=1;shadow=0;glass=0;sketch=1;jiggle=2;curveFitting=1;strokeColor=default;fontFamily=Lucida Console;fontSize=12;fontColor=default;fillColor=none;gradientColor=none;" parent="1" vertex="1">
                    <mxGeometry x="-105" y="-270" width="80" height="80" as="geometry"/>
                </mxCell>
                <mxCell id="XVa0OCVXgA-f_FIXLsMd-87" value="PDF&lt;br&gt;File" style="ellipse;whiteSpace=wrap;html=1;rounded=1;shadow=0;glass=0;sketch=1;jiggle=2;curveFitting=1;strokeColor=default;fontFamily=Lucida Console;fontSize=12;fontColor=default;fillColor=none;gradientColor=none;" parent="1" vertex="1">
                    <mxGeometry x="-105" y="550" width="80" height="80" as="geometry"/>
                </mxCell>
                <mxCell id="XVa0OCVXgA-f_FIXLsMd-185" style="edgeStyle=none;shape=connector;rounded=0;orthogonalLoop=1;jettySize=auto;html=1;exitX=0.022;exitY=0.5;exitDx=0;exitDy=0;entryX=0.015;entryY=0.081;entryDx=0;entryDy=0;dashed=1;labelBackgroundColor=default;strokeColor=default;fontFamily=Lucida Console;fontSize=12;fontColor=default;endArrow=classic;entryPerimeter=0;exitPerimeter=0;" parent="1" source="XVa0OCVXgA-f_FIXLsMd-132" target="XVa0OCVXgA-f_FIXLsMd-134" edge="1">
                    <mxGeometry relative="1" as="geometry">
                        <Array as="points">
                            <mxPoint x="580" y="330"/>
                            <mxPoint x="580" y="550"/>
                        </Array>
                    </mxGeometry>
                </mxCell>
                <mxCell id="XVa0OCVXgA-f_FIXLsMd-132" value="&lt;div style=&quot;background-color: rgb(20, 24, 36); font-family: &amp;quot;Cascadia Code PL&amp;quot;, &amp;quot;JetBrains Mono&amp;quot;, Consolas, &amp;quot;Courier New&amp;quot;, monospace, Consolas, &amp;quot;Courier New&amp;quot;, monospace; font-size: 14px; line-height: 22px;&quot;&gt;&lt;span style=&quot;color: rgb(203, 206, 188);&quot;&gt;LayoutBuilder.&lt;span style=&quot;color: #ef596f;&quot;&gt;prototype&lt;/span&gt;.&lt;span style=&quot;color: #61afef;font-weight: bold;&quot;&gt;layoutDocument&lt;/span&gt;(&lt;span style=&quot;color: #ef596f;font-style: italic;&quot;&gt;docStructure&lt;/span&gt;, &lt;/span&gt;&lt;font color=&quot;#ef596f&quot;&gt;&lt;i&gt;...&lt;/i&gt;&lt;/font&gt;&lt;font color=&quot;#cbcebc&quot;&gt;)&lt;/font&gt;&lt;/div&gt;&lt;br&gt;&lt;br&gt;&lt;br&gt;&lt;div style=&quot;color: rgb(203, 206, 188); background-color: rgb(20, 24, 36); font-family: &amp;quot;Cascadia Code PL&amp;quot;, &amp;quot;JetBrains Mono&amp;quot;, Consolas, &amp;quot;Courier New&amp;quot;, monospace, Consolas, &amp;quot;Courier New&amp;quot;, monospace; font-size: 14px; line-height: 22px;&quot;&gt;this.&lt;span style=&quot;color: #ef596f;&quot;&gt;docPreprocessor&lt;/span&gt; &lt;span style=&quot;color: #2bbac5;&quot;&gt;=&lt;/span&gt; &lt;span style=&quot;color: #d55fde;&quot;&gt;new&lt;/span&gt; &lt;span style=&quot;color: #e5c07b;font-weight: bold;&quot;&gt;DocPreprocessor&lt;/span&gt;();&lt;/div&gt;&lt;div style=&quot;background-color: rgb(20, 24, 36); font-family: &amp;quot;Cascadia Code PL&amp;quot;, &amp;quot;JetBrains Mono&amp;quot;, Consolas, &amp;quot;Courier New&amp;quot;, monospace, Consolas, &amp;quot;Courier New&amp;quot;, monospace; font-size: 14px; line-height: 22px;&quot;&gt;&lt;span style=&quot;color: rgb(203, 206, 188);&quot;&gt;this.&lt;span style=&quot;color: #ef596f;&quot;&gt;docMeasure&lt;/span&gt; &lt;span style=&quot;color: #2bbac5;&quot;&gt;=&lt;/span&gt; &lt;span style=&quot;color: #d55fde;&quot;&gt;new&lt;/span&gt; &lt;span style=&quot;color: #e5c07b;font-weight: bold;&quot;&gt;DocMeasure&lt;/span&gt;(&lt;/span&gt;&lt;font color=&quot;#ef596f&quot;&gt;&lt;i&gt;...&lt;/i&gt;&lt;/font&gt;&lt;font color=&quot;#cbcebc&quot;&gt;);&lt;/font&gt;&lt;/div&gt;&lt;br&gt;&lt;div style=&quot;background-color: rgb(20, 24, 36); font-family: &amp;quot;Cascadia Code PL&amp;quot;, &amp;quot;JetBrains Mono&amp;quot;, Consolas, &amp;quot;Courier New&amp;quot;, monospace, Consolas, &amp;quot;Courier New&amp;quot;, monospace; font-size: 14px; line-height: 22px;&quot;&gt;&lt;div style=&quot;&quot;&gt;&lt;font color=&quot;#cbcebc&quot;&gt;var &lt;/font&gt;&lt;span style=&quot;color: rgb(239, 89, 111);&quot;&gt;result&lt;/span&gt; &lt;span style=&quot;color: rgb(43, 186, 197);&quot;&gt;=&lt;/span&gt; &lt;span style=&quot;color: rgb(229, 192, 123);&quot;&gt;this&lt;/span&gt;&lt;font color=&quot;#cbcebc&quot;&gt;.&lt;/font&gt;&lt;span style=&quot;color: rgb(97, 175, 239); font-weight: bold;&quot;&gt;tryLayoutDocument&lt;/span&gt;&lt;font color=&quot;#cbcebc&quot;&gt;(&lt;/font&gt;&lt;span style=&quot;color: rgb(239, 89, 111); font-style: italic;&quot;&gt;docStructure&lt;/span&gt;&lt;font color=&quot;#cbcebc&quot;&gt;, &lt;/font&gt;&lt;font color=&quot;#ef596f&quot;&gt;&lt;i&gt;...&lt;/i&gt;&lt;/font&gt;&lt;font color=&quot;#cbcebc&quot;&gt;);&lt;/font&gt;&lt;/div&gt;&lt;div style=&quot;color: rgb(203, 206, 188);&quot;&gt;&lt;/div&gt;&lt;/div&gt;&lt;div style=&quot;&quot;&gt;&lt;div style=&quot;background-color: rgb(20, 24, 36); font-family: &amp;quot;Cascadia Code PL&amp;quot;, &amp;quot;JetBrains Mono&amp;quot;, Consolas, &amp;quot;Courier New&amp;quot;, monospace, Consolas, &amp;quot;Courier New&amp;quot;, monospace; font-size: 14px; line-height: 22px;&quot;&gt;&lt;div style=&quot;color: rgb(203, 206, 188);&quot;&gt;while (&lt;span style=&quot;color: #61afef;font-weight: bold;&quot;&gt;addPageBreaksIfNecessary&lt;/span&gt;(&lt;span style=&quot;color: #ef596f;&quot;&gt;result&lt;/span&gt;.&lt;span style=&quot;color: #ef596f;&quot;&gt;linearNodeList&lt;/span&gt;, &lt;span style=&quot;color: #ef596f;&quot;&gt;result&lt;/span&gt;.&lt;span style=&quot;color: #ef596f;&quot;&gt;pages&lt;/span&gt;)) {&lt;/div&gt;&lt;div style=&quot;color: rgb(203, 206, 188);&quot;&gt;&amp;nbsp; &amp;nbsp; &lt;span style=&quot;color: #61afef;font-weight: bold;&quot;&gt;resetXYs&lt;/span&gt;(&lt;span style=&quot;color: #ef596f;&quot;&gt;result&lt;/span&gt;);&lt;/div&gt;&lt;div style=&quot;&quot;&gt;&lt;font color=&quot;#cbcebc&quot;&gt;&amp;nbsp; &amp;nbsp; &lt;/font&gt;&lt;span style=&quot;color: rgb(239, 89, 111);&quot;&gt;result&lt;/span&gt; &lt;span style=&quot;color: rgb(43, 186, 197);&quot;&gt;=&lt;/span&gt; &lt;span style=&quot;color: rgb(229, 192, 123);&quot;&gt;this&lt;/span&gt;&lt;font color=&quot;#cbcebc&quot;&gt;.&lt;/font&gt;&lt;span style=&quot;color: rgb(97, 175, 239); font-weight: bold;&quot;&gt;tryLayoutDocument&lt;/span&gt;&lt;font color=&quot;#cbcebc&quot;&gt;(&lt;/font&gt;&lt;span style=&quot;color: rgb(239, 89, 111); font-style: italic;&quot;&gt;docStructure&lt;/span&gt;&lt;font color=&quot;#cbcebc&quot;&gt;, &lt;/font&gt;&lt;font color=&quot;#ef596f&quot;&gt;&lt;i&gt;...&lt;/i&gt;&lt;/font&gt;&lt;font color=&quot;#cbcebc&quot;&gt;);&lt;/font&gt;&lt;/div&gt;&lt;div style=&quot;color: rgb(203, 206, 188);&quot;&gt;}&lt;/div&gt;&lt;div style=&quot;color: rgb(203, 206, 188);&quot;&gt;&lt;br&gt;&lt;/div&gt;&lt;/div&gt;&lt;/div&gt;&lt;div style=&quot;&quot;&gt;&lt;div style=&quot;color: rgb(203, 206, 188); background-color: rgb(20, 24, 36); font-family: &amp;quot;Cascadia Code PL&amp;quot;, &amp;quot;JetBrains Mono&amp;quot;, Consolas, &amp;quot;Courier New&amp;quot;, monospace, Consolas, &amp;quot;Courier New&amp;quot;, monospace; font-size: 14px; line-height: 22px;&quot;&gt;return &lt;span style=&quot;color: #ef596f;&quot;&gt;result&lt;/span&gt;.&lt;span style=&quot;color: #ef596f;&quot;&gt;pages&lt;/span&gt;;&lt;/div&gt;&lt;/div&gt;" style="whiteSpace=wrap;html=1;fontFamily=Lucida Console;fontSize=12;fontColor=default;fillColor=none;gradientColor=none;rounded=1;sketch=1;curveFitting=1;jiggle=2;verticalAlign=top;align=left;spacing=15;" parent="1" vertex="1">
                    <mxGeometry x="696.25" y="170" width="627.5" height="320" as="geometry"/>
                </mxCell>
                <mxCell id="XVa0OCVXgA-f_FIXLsMd-157" style="edgeStyle=orthogonalEdgeStyle;rounded=0;orthogonalLoop=1;jettySize=auto;html=1;exitX=0.5;exitY=1;exitDx=0;exitDy=0;entryX=0.5;entryY=0;entryDx=0;entryDy=0;fontFamily=Lucida Console;fontSize=12;fontColor=default;" parent="1" target="XVa0OCVXgA-f_FIXLsMd-148" edge="1">
                    <mxGeometry relative="1" as="geometry">
                        <mxPoint x="1014.9999999999995" y="990" as="sourcePoint"/>
                    </mxGeometry>
                </mxCell>
                <mxCell id="XVa0OCVXgA-f_FIXLsMd-134" value="&lt;div style=&quot;background-color: rgb(20, 24, 36); font-family: &amp;quot;Cascadia Code PL&amp;quot;, &amp;quot;JetBrains Mono&amp;quot;, Consolas, &amp;quot;Courier New&amp;quot;, monospace, Consolas, &amp;quot;Courier New&amp;quot;, monospace; font-size: 14px; line-height: 22px;&quot;&gt;&lt;span style=&quot;color: rgb(203, 206, 188);&quot;&gt;LayoutBuilder.&lt;span style=&quot;color: #ef596f;&quot;&gt;prototype&lt;/span&gt;.&lt;span style=&quot;color: #61afef;font-weight: bold;&quot;&gt;tryLayoutDocument&lt;/span&gt;(&lt;span style=&quot;color: #ef596f;font-style: italic;&quot;&gt;docStructure&lt;/span&gt;, &lt;/span&gt;&lt;font color=&quot;#ef596f&quot;&gt;&lt;i&gt;...&lt;/i&gt;&lt;/font&gt;&lt;font color=&quot;#cbcebc&quot;&gt;)&lt;/font&gt;&lt;/div&gt;&lt;br&gt;&lt;br&gt;&lt;br style=&quot;&quot;&gt;&lt;div style=&quot;color: rgb(203, 206, 188); background-color: rgb(20, 24, 36); font-family: &amp;quot;Cascadia Code PL&amp;quot;, &amp;quot;JetBrains Mono&amp;quot;, Consolas, &amp;quot;Courier New&amp;quot;, monospace, Consolas, &amp;quot;Courier New&amp;quot;, monospace; font-size: 14px; line-height: 22px;&quot;&gt;this.&lt;span style=&quot;color: #ef596f;&quot;&gt;linearNodeList&lt;/span&gt; &lt;span style=&quot;color: #2bbac5;&quot;&gt;=&lt;/span&gt; &lt;span style=&quot;color: #abb2bf;&quot;&gt;[]&lt;/span&gt;;&lt;/div&gt;&lt;div style=&quot;color: rgb(203, 206, 188); background-color: rgb(20, 24, 36); font-family: &amp;quot;Cascadia Code PL&amp;quot;, &amp;quot;JetBrains Mono&amp;quot;, Consolas, &amp;quot;Courier New&amp;quot;, monospace, Consolas, &amp;quot;Courier New&amp;quot;, monospace; font-size: 14px; line-height: 22px;&quot;&gt;&lt;div style=&quot;line-height: 22px;&quot;&gt;docStructure &lt;span style=&quot;color: #2bbac5;&quot;&gt;=&lt;/span&gt; &lt;span style=&quot;color: #e5c07b;&quot;&gt;this&lt;/span&gt;.&lt;span style=&quot;color: #e5c07b;&quot;&gt;docPreprocessor&lt;/span&gt;.&lt;span style=&quot;color: #61afef;font-weight: bold;&quot;&gt;preprocessDocument&lt;/span&gt;(&lt;span style=&quot;color: #ef596f;font-style: italic;&quot;&gt;docStructure&lt;/span&gt;);&lt;/div&gt;&lt;div style=&quot;line-height: 22px;&quot;&gt;&lt;div style=&quot;line-height: 22px;&quot;&gt;docStructure &lt;span style=&quot;color: #2bbac5;&quot;&gt;=&lt;/span&gt; &lt;span style=&quot;color: #e5c07b;&quot;&gt;this&lt;/span&gt;.&lt;span style=&quot;color: #e5c07b;&quot;&gt;docMeasure&lt;/span&gt;.&lt;span style=&quot;color: #61afef;font-weight: bold;&quot;&gt;measureDocument&lt;/span&gt;(&lt;span style=&quot;color: #ef596f;font-style: italic;&quot;&gt;docStructure&lt;/span&gt;);&lt;/div&gt;&lt;/div&gt;&lt;/div&gt;&lt;br style=&quot;&quot;&gt;&lt;div style=&quot;color: rgb(203, 206, 188); background-color: rgb(20, 24, 36); font-family: &amp;quot;Cascadia Code PL&amp;quot;, &amp;quot;JetBrains Mono&amp;quot;, Consolas, &amp;quot;Courier New&amp;quot;, monospace, Consolas, &amp;quot;Courier New&amp;quot;, monospace; font-size: 14px; line-height: 22px;&quot;&gt;&lt;div&gt;this.&lt;span style=&quot;color: #ef596f;&quot;&gt;writer&lt;/span&gt; &lt;span style=&quot;color: #2bbac5;&quot;&gt;=&lt;/span&gt; &lt;span style=&quot;color: #d55fde;&quot;&gt;new&lt;/span&gt; &lt;span style=&quot;color: #e5c07b;font-weight: bold;&quot;&gt;PageElementWriter&lt;/span&gt;(&lt;/div&gt;&lt;div&gt;&lt;span style=&quot;color: rgb(213, 95, 222);&quot;&gt;&amp;nbsp; &amp;nbsp; new&lt;/span&gt; &lt;span style=&quot;color: rgb(229, 192, 123); font-weight: bold;&quot;&gt;DocumentContext&lt;/span&gt;(.&lt;span style=&quot;color: rgb(239, 89, 111);&quot;&gt;..&lt;/span&gt;),&amp;nbsp;&lt;/div&gt;&lt;div&gt;&lt;span style=&quot;color: rgb(229, 192, 123);&quot;&gt;&amp;nbsp; &amp;nbsp; this&lt;/span&gt;.&lt;span style=&quot;color: rgb(239, 89, 111);&quot;&gt;tracker&lt;/span&gt;&lt;/div&gt;&lt;div&gt;);&lt;/div&gt;&lt;/div&gt;&lt;span style=&quot;&quot;&gt;&lt;br&gt;...&lt;/span&gt;&lt;br style=&quot;&quot;&gt;&lt;br style=&quot;&quot;&gt;&lt;div style=&quot;color: rgb(203, 206, 188); background-color: rgb(20, 24, 36); font-family: &amp;quot;Cascadia Code PL&amp;quot;, &amp;quot;JetBrains Mono&amp;quot;, Consolas, &amp;quot;Courier New&amp;quot;, monospace, Consolas, &amp;quot;Courier New&amp;quot;, monospace; font-size: 14px; line-height: 22px;&quot;&gt;this.&lt;span style=&quot;color: #61afef;font-weight: bold;&quot;&gt;processNode&lt;/span&gt;(&lt;span style=&quot;color: #ef596f;font-style: italic;&quot;&gt;docStructure&lt;/span&gt;);&lt;/div&gt;&lt;br&gt;&lt;div style=&quot;color: rgb(203, 206, 188); background-color: rgb(20, 24, 36); font-family: &amp;quot;Cascadia Code PL&amp;quot;, &amp;quot;JetBrains Mono&amp;quot;, Consolas, &amp;quot;Courier New&amp;quot;, monospace, Consolas, &amp;quot;Courier New&amp;quot;, monospace; font-size: 14px; line-height: 22px;&quot;&gt;&lt;span style=&quot;color: #d55fde;&quot;&gt;return&lt;/span&gt; {&amp;nbsp;&lt;/div&gt;&lt;div style=&quot;color: rgb(203, 206, 188); background-color: rgb(20, 24, 36); font-family: &amp;quot;Cascadia Code PL&amp;quot;, &amp;quot;JetBrains Mono&amp;quot;, Consolas, &amp;quot;Courier New&amp;quot;, monospace, Consolas, &amp;quot;Courier New&amp;quot;, monospace; font-size: 14px; line-height: 22px;&quot;&gt;&lt;span style=&quot;color: #ef596f;&quot;&gt;&amp;nbsp; &amp;nbsp; pages&lt;/span&gt;&lt;span style=&quot;color: #abb2bf;&quot;&gt;:&lt;/span&gt; &lt;span style=&quot;color: #e5c07b;&quot;&gt;this&lt;/span&gt;.&lt;span style=&quot;color: #e5c07b;&quot;&gt;writer&lt;/span&gt;.&lt;span style=&quot;color: #61afef;font-weight: bold;&quot;&gt;context&lt;/span&gt;().&lt;span style=&quot;color: #ef596f;&quot;&gt;pages&lt;/span&gt;,&amp;nbsp;&lt;/div&gt;&lt;div style=&quot;color: rgb(203, 206, 188); background-color: rgb(20, 24, 36); font-family: &amp;quot;Cascadia Code PL&amp;quot;, &amp;quot;JetBrains Mono&amp;quot;, Consolas, &amp;quot;Courier New&amp;quot;, monospace, Consolas, &amp;quot;Courier New&amp;quot;, monospace; font-size: 14px; line-height: 22px;&quot;&gt;&lt;span style=&quot;color: #ef596f;&quot;&gt;&amp;nbsp; &amp;nbsp; linearNodeList&lt;/span&gt;&lt;span style=&quot;color: #abb2bf;&quot;&gt;:&lt;/span&gt; &lt;span style=&quot;color: #e5c07b;&quot;&gt;this&lt;/span&gt;.&lt;span style=&quot;color: #ef596f;&quot;&gt;linearNodeList&lt;/span&gt;&amp;nbsp;&lt;/div&gt;&lt;div style=&quot;color: rgb(203, 206, 188); background-color: rgb(20, 24, 36); font-family: &amp;quot;Cascadia Code PL&amp;quot;, &amp;quot;JetBrains Mono&amp;quot;, Consolas, &amp;quot;Courier New&amp;quot;, monospace, Consolas, &amp;quot;Courier New&amp;quot;, monospace; font-size: 14px; line-height: 22px;&quot;&gt;};&lt;/div&gt;" style="whiteSpace=wrap;html=1;fontFamily=Lucida Console;fontSize=12;fontColor=default;fillColor=none;gradientColor=none;rounded=1;sketch=1;curveFitting=1;jiggle=2;arcSize=9;align=left;verticalAlign=top;spacingLeft=0;spacing=15;" parent="1" vertex="1">
                    <mxGeometry x="680" y="520" width="670" height="440" as="geometry"/>
                </mxCell>
                <mxCell id="XVa0OCVXgA-f_FIXLsMd-121" value="&lt;div style=&quot;color: rgb(203, 206, 188); background-color: rgb(20, 24, 36); font-family: &amp;quot;Cascadia Code PL&amp;quot;, &amp;quot;JetBrains Mono&amp;quot;, Consolas, &amp;quot;Courier New&amp;quot;, monospace, Consolas, &amp;quot;Courier New&amp;quot;, monospace; font-size: 14px; line-height: 22px;&quot;&gt;PdfPrinter.&lt;span style=&quot;color: #ef596f;&quot;&gt;prototype&lt;/span&gt;.&lt;span style=&quot;color: #61afef;font-weight: bold;&quot;&gt;createPdfKitDocument&lt;/span&gt;(&lt;span style=&quot;color: #ef596f;font-style: italic;&quot;&gt;docDefinition&lt;/span&gt;, &lt;span style=&quot;color: #ef596f;font-style: italic;&quot;&gt;options&lt;/span&gt;)&lt;/div&gt;&lt;br&gt;&lt;br&gt;&lt;br&gt;&lt;div style=&quot;color: rgb(203, 206, 188); background-color: rgb(20, 24, 36); font-family: &amp;quot;Cascadia Code PL&amp;quot;, &amp;quot;JetBrains Mono&amp;quot;, Consolas, &amp;quot;Courier New&amp;quot;, monospace, Consolas, &amp;quot;Courier New&amp;quot;, monospace; font-size: 14px; line-height: 22px;&quot;&gt;this.&lt;span style=&quot;color: #ef596f;&quot;&gt;pdfKitDoc&lt;/span&gt; &lt;span style=&quot;color: #2bbac5;&quot;&gt;=&lt;/span&gt; &lt;span style=&quot;color: #e5c07b;&quot;&gt;PdfKitEngine&lt;/span&gt;.&lt;span style=&quot;color: #61afef;font-weight: bold;&quot;&gt;createPdfDocument&lt;/span&gt;(&lt;span style=&quot;color: #ef596f;&quot;&gt;...&lt;/span&gt;);&lt;/div&gt;&lt;br style=&quot;&quot;&gt;&lt;div style=&quot;background-color: rgb(20, 24, 36); font-family: &amp;quot;Cascadia Code PL&amp;quot;, &amp;quot;JetBrains Mono&amp;quot;, Consolas, &amp;quot;Courier New&amp;quot;, monospace, Consolas, &amp;quot;Courier New&amp;quot;, monospace; font-size: 14px; line-height: 22px;&quot;&gt;&lt;div style=&quot;&quot;&gt;&lt;font color=&quot;#cbcebc&quot;&gt;var &lt;/font&gt;&lt;span style=&quot;color: rgb(239, 89, 111);&quot;&gt;builder&lt;/span&gt; &lt;span style=&quot;color: rgb(43, 186, 197);&quot;&gt;=&lt;/span&gt; &lt;span style=&quot;color: rgb(213, 95, 222);&quot;&gt;new&lt;/span&gt; &lt;span style=&quot;color: rgb(229, 192, 123); font-weight: bold;&quot;&gt;LayoutBuilder&lt;/span&gt;&lt;font color=&quot;#cbcebc&quot;&gt;(&lt;/font&gt;&lt;font color=&quot;#ef596f&quot;&gt;...&lt;/font&gt;&lt;font color=&quot;#cbcebc&quot;&gt;);&lt;/font&gt;&lt;/div&gt;&lt;/div&gt;&lt;div style=&quot;color: rgb(203, 206, 188); background-color: rgb(20, 24, 36); font-family: &amp;quot;Cascadia Code PL&amp;quot;, &amp;quot;JetBrains Mono&amp;quot;, Consolas, &amp;quot;Courier New&amp;quot;, monospace, Consolas, &amp;quot;Courier New&amp;quot;, monospace; font-size: 14px; line-height: 22px;&quot;&gt;&lt;div&gt;var &lt;span style=&quot;color: #ef596f;&quot;&gt;pages&lt;/span&gt; &lt;span style=&quot;color: #2bbac5;&quot;&gt;=&lt;/span&gt; &lt;span style=&quot;color: #ef596f;&quot;&gt;builder&lt;/span&gt;.&lt;span style=&quot;color: #61afef;font-weight: bold;&quot;&gt;layoutDocument&lt;/span&gt;(...);&lt;/div&gt;&lt;/div&gt;&lt;br&gt;&lt;div style=&quot;background-color: rgb(20, 24, 36); font-family: &amp;quot;Cascadia Code PL&amp;quot;, &amp;quot;JetBrains Mono&amp;quot;, Consolas, &amp;quot;Courier New&amp;quot;, monospace, Consolas, &amp;quot;Courier New&amp;quot;, monospace; font-size: 14px; line-height: 22px;&quot;&gt;&lt;span style=&quot;color: rgb(203, 206, 188);&quot;&gt;renderPages(&lt;span style=&quot;color: #ef596f;&quot;&gt;pages&lt;/span&gt;, &lt;/span&gt;&lt;font color=&quot;#e5c07b&quot;&gt;...&lt;/font&gt;&lt;font color=&quot;#cbcebc&quot;&gt;, &lt;/font&gt;&lt;span style=&quot;color: rgb(229, 192, 123);&quot;&gt;this&lt;/span&gt;&lt;font color=&quot;#cbcebc&quot;&gt;.&lt;/font&gt;&lt;span style=&quot;color: rgb(239, 89, 111);&quot;&gt;pdfKitDoc&lt;/span&gt;&lt;font color=&quot;#cbcebc&quot;&gt;, &lt;/font&gt;&lt;font color=&quot;#ef596f&quot;&gt;...&lt;/font&gt;&lt;font color=&quot;#cbcebc&quot;&gt;);&lt;/font&gt;&lt;/div&gt;" style="whiteSpace=wrap;html=1;rounded=1;shadow=0;glass=0;sketch=1;jiggle=2;curveFitting=1;strokeColor=default;fontFamily=Lucida Console;fontSize=12;fontColor=default;fillColor=none;gradientColor=none;align=left;spacing=15;verticalAlign=top;" parent="1" vertex="1">
                    <mxGeometry x="-350" y="82.26" width="570" height="217.74" as="geometry"/>
                </mxCell>
                <mxCell id="XVa0OCVXgA-f_FIXLsMd-172" style="edgeStyle=orthogonalEdgeStyle;rounded=0;orthogonalLoop=1;jettySize=auto;html=1;entryX=0.5;entryY=0;entryDx=0;entryDy=0;fontFamily=Lucida Console;fontSize=12;fontColor=default;" parent="1" source="XVa0OCVXgA-f_FIXLsMd-147" target="XVa0OCVXgA-f_FIXLsMd-132" edge="1">
                    <mxGeometry relative="1" as="geometry"/>
                </mxCell>
                <mxCell id="XVa0OCVXgA-f_FIXLsMd-177" value="" style="edgeStyle=orthogonalEdgeStyle;rounded=0;orthogonalLoop=1;jettySize=auto;html=1;entryX=0;entryY=0.5;entryDx=0;entryDy=0;fontFamily=Lucida Console;fontSize=12;fontColor=default;dashed=1;" parent="1" source="XVa0OCVXgA-f_FIXLsMd-147" target="XVa0OCVXgA-f_FIXLsMd-176" edge="1">
                    <mxGeometry x="0.1613" y="-15" relative="1" as="geometry">
                        <mxPoint as="offset"/>
                    </mxGeometry>
                </mxCell>
                <mxCell id="XVa0OCVXgA-f_FIXLsMd-147" value="&lt;div style=&quot;color: rgb(203, 206, 188); background-color: rgb(20, 24, 36); font-family: &amp;quot;Cascadia Code PL&amp;quot;, &amp;quot;JetBrains Mono&amp;quot;, Consolas, &amp;quot;Courier New&amp;quot;, monospace, Consolas, &amp;quot;Courier New&amp;quot;, monospace; font-size: 14px; line-height: 22px;&quot;&gt;this.&lt;span style=&quot;color: #ef596f;&quot;&gt;tracker&lt;/span&gt; &lt;span style=&quot;color: #2bbac5;&quot;&gt;=&lt;/span&gt; &lt;span style=&quot;color: #d55fde;&quot;&gt;new&lt;/span&gt; &lt;span style=&quot;color: #e5c07b;font-weight: bold;&quot;&gt;TraversalTracker&lt;/span&gt;();&lt;/div&gt;" style="text;html=1;align=center;verticalAlign=middle;resizable=0;points=[];autosize=1;strokeColor=none;fillColor=none;fontSize=12;fontFamily=Lucida Console;fontColor=default;" parent="1" vertex="1">
                    <mxGeometry x="840" y="94.99999999999999" width="340" height="40" as="geometry"/>
                </mxCell>
                <mxCell id="XVa0OCVXgA-f_FIXLsMd-148" value="&lt;div style=&quot;color: rgb(203, 206, 188); background-color: rgb(20, 24, 36); font-family: &amp;quot;Cascadia Code PL&amp;quot;, &amp;quot;JetBrains Mono&amp;quot;, Consolas, &amp;quot;Courier New&amp;quot;, monospace, Consolas, &amp;quot;Courier New&amp;quot;, monospace; font-size: 14px; line-height: 22px;&quot;&gt;LayoutBuilder.&lt;span style=&quot;color: #ef596f;&quot;&gt;prototype&lt;/span&gt;.&lt;span style=&quot;color: #61afef;font-weight: bold;&quot;&gt;processNode&lt;/span&gt;(&lt;span style=&quot;color: #ef596f;font-style: italic;&quot;&gt;node&lt;/span&gt;)&lt;/div&gt;&lt;br style=&quot;&quot;&gt;&lt;br&gt;&lt;br style=&quot;&quot;&gt;&lt;div style=&quot;color: rgb(203, 206, 188); background-color: rgb(20, 24, 36); font-family: &amp;quot;Cascadia Code PL&amp;quot;, &amp;quot;JetBrains Mono&amp;quot;, Consolas, &amp;quot;Courier New&amp;quot;, monospace, Consolas, &amp;quot;Courier New&amp;quot;, monospace; font-size: 14px; line-height: 22px;&quot;&gt;this.&lt;span style=&quot;color: #e5c07b;&quot;&gt;linearNodeList&lt;/span&gt;.&lt;span style=&quot;color: #61afef;font-weight: bold;&quot;&gt;push&lt;/span&gt;(&lt;span style=&quot;color: #ef596f;font-style: italic;&quot;&gt;node&lt;/span&gt;);&lt;/div&gt;" style="whiteSpace=wrap;html=1;fontFamily=Lucida Console;fontSize=12;fontColor=default;fillColor=none;gradientColor=none;rounded=1;sketch=1;curveFitting=1;jiggle=2;arcSize=6;verticalAlign=top;align=left;spacing=15;" parent="1" vertex="1">
                    <mxGeometry x="740" y="1030" width="550" height="1060" as="geometry"/>
                </mxCell>
                <mxCell id="XVa0OCVXgA-f_FIXLsMd-150" value="&lt;div style=&quot;color: rgb(203, 206, 188); background-color: rgb(20, 24, 36); font-family: &amp;quot;Cascadia Code PL&amp;quot;, &amp;quot;JetBrains Mono&amp;quot;, Consolas, &amp;quot;Courier New&amp;quot;, monospace, Consolas, &amp;quot;Courier New&amp;quot;, monospace; font-size: 14px; line-height: 22px;&quot;&gt;applyMargins(&lt;span style=&quot;color: #ef596f;font-style: italic;&quot;&gt;callback&lt;/span&gt;)&lt;/div&gt;" style="whiteSpace=wrap;html=1;rounded=1;sketch=1;jiggle=2;curveFitting=1;strokeColor=default;fontFamily=Lucida Console;fontSize=12;fontColor=default;fillColor=none;gradientColor=none;arcSize=5;verticalAlign=top;align=left;spacing=15;" parent="1" vertex="1">
                    <mxGeometry x="770" y="1160" width="480" height="890" as="geometry"/>
                </mxCell>
                <mxCell id="XVa0OCVXgA-f_FIXLsMd-164" style="edgeStyle=orthogonalEdgeStyle;rounded=0;orthogonalLoop=1;jettySize=auto;html=1;exitX=0;exitY=0.6;exitDx=0;exitDy=0;entryX=0.25;entryY=0;entryDx=0;entryDy=0;fontFamily=Lucida Console;fontSize=12;fontColor=default;exitPerimeter=0;dashed=1;" parent="1" source="XVa0OCVXgA-f_FIXLsMd-156" target="XVa0OCVXgA-f_FIXLsMd-162" edge="1">
                    <mxGeometry relative="1" as="geometry"/>
                </mxCell>
                <mxCell id="XVa0OCVXgA-f_FIXLsMd-156" value="&lt;div style=&quot;color: rgb(203, 206, 188); background-color: rgb(20, 24, 36); font-family: &amp;quot;Cascadia Code PL&amp;quot;, &amp;quot;JetBrains Mono&amp;quot;, Consolas, &amp;quot;Courier New&amp;quot;, monospace, Consolas, &amp;quot;Courier New&amp;quot;, monospace; font-size: 14px; line-height: 22px;&quot;&gt;callback&lt;/div&gt;&lt;br&gt;&lt;br&gt;&lt;br&gt;&lt;div style=&quot;color: rgb(203, 206, 188); background-color: rgb(20, 24, 36); font-family: &amp;quot;Cascadia Code PL&amp;quot;, &amp;quot;JetBrains Mono&amp;quot;, Consolas, &amp;quot;Courier New&amp;quot;, monospace, Consolas, &amp;quot;Courier New&amp;quot;, monospace; font-size: 14px; line-height: 22px;&quot;&gt;processColumns(&lt;span style=&quot;color: #ef596f;font-style: italic;&quot;&gt;node&lt;/span&gt;);&lt;/div&gt;&lt;br&gt;&lt;div style=&quot;color: rgb(203, 206, 188); background-color: rgb(20, 24, 36); font-family: &amp;quot;Cascadia Code PL&amp;quot;, &amp;quot;JetBrains Mono&amp;quot;, Consolas, &amp;quot;Courier New&amp;quot;, monospace, Consolas, &amp;quot;Courier New&amp;quot;, monospace; font-size: 14px; line-height: 22px;&quot;&gt;processTable(&lt;span style=&quot;color: #ef596f;font-style: italic;&quot;&gt;node&lt;/span&gt;);&lt;/div&gt;" style="whiteSpace=wrap;html=1;rounded=1;sketch=1;jiggle=2;curveFitting=1;strokeColor=default;fontFamily=Lucida Console;fontSize=12;fontColor=default;fillColor=none;gradientColor=none;arcSize=5;verticalAlign=top;align=left;spacing=15;" parent="1" vertex="1">
                    <mxGeometry x="802" y="1500" width="420" height="160" as="geometry"/>
                </mxCell>
                <mxCell id="XVa0OCVXgA-f_FIXLsMd-159" value="&lt;div style=&quot;color: rgb(203, 206, 188); background-color: rgb(20, 24, 36); font-family: &amp;quot;Cascadia Code PL&amp;quot;, &amp;quot;JetBrains Mono&amp;quot;, Consolas, &amp;quot;Courier New&amp;quot;, monospace, Consolas, &amp;quot;Courier New&amp;quot;, monospace; font-size: 14px; line-height: 22px;&quot;&gt;LayoutBuilder.&lt;span style=&quot;color: #ef596f;&quot;&gt;prototype&lt;/span&gt;.&lt;span style=&quot;color: #61afef;font-weight: bold;&quot;&gt;processTable&lt;/span&gt;(&lt;span style=&quot;color: #ef596f;font-style: italic;&quot;&gt;tableNode&lt;/span&gt;)&lt;/div&gt;&lt;br&gt;&lt;br&gt;&lt;br&gt;&lt;div style=&quot;color: rgb(203, 206, 188); background-color: rgb(20, 24, 36); font-family: &amp;quot;Cascadia Code PL&amp;quot;, &amp;quot;JetBrains Mono&amp;quot;, Consolas, &amp;quot;Courier New&amp;quot;, monospace, Consolas, &amp;quot;Courier New&amp;quot;, monospace; font-size: 14px; line-height: 22px;&quot;&gt;var &lt;span style=&quot;color: #ef596f;&quot;&gt;processor&lt;/span&gt; &lt;span style=&quot;color: #2bbac5;&quot;&gt;=&lt;/span&gt; &lt;span style=&quot;color: #d55fde;&quot;&gt;new&lt;/span&gt; &lt;span style=&quot;color: #e5c07b;font-weight: bold;&quot;&gt;TableProcessor&lt;/span&gt;(&lt;span style=&quot;color: #ef596f;font-style: italic;&quot;&gt;tableNode&lt;/span&gt;);&lt;/div&gt;&lt;br&gt;&lt;br&gt;&lt;div style=&quot;color: rgb(203, 206, 188); background-color: rgb(20, 24, 36); font-family: &amp;quot;Cascadia Code PL&amp;quot;, &amp;quot;JetBrains Mono&amp;quot;, Consolas, &amp;quot;Courier New&amp;quot;, monospace, Consolas, &amp;quot;Courier New&amp;quot;, monospace; font-size: 14px; line-height: 22px;&quot;&gt;processor.&lt;span style=&quot;color: #61afef;font-weight: bold;&quot;&gt;beginTable&lt;/span&gt;(&lt;span style=&quot;color: #e5c07b;&quot;&gt;this&lt;/span&gt;.&lt;span style=&quot;color: #ef596f;&quot;&gt;writer&lt;/span&gt;);&lt;/div&gt;&lt;div style=&quot;color: rgb(203, 206, 188); background-color: rgb(20, 24, 36); font-family: &amp;quot;Cascadia Code PL&amp;quot;, &amp;quot;JetBrains Mono&amp;quot;, Consolas, &amp;quot;Courier New&amp;quot;, monospace, Consolas, &amp;quot;Courier New&amp;quot;, monospace; font-size: 14px; line-height: 22px;&quot;&gt;processor.&lt;span style=&quot;color: #61afef;font-weight: bold;&quot;&gt;beginRow&lt;/span&gt;(&lt;span style=&quot;color: #ef596f;&quot;&gt;i&lt;/span&gt;, &lt;span style=&quot;color: #e5c07b;&quot;&gt;this&lt;/span&gt;.&lt;span style=&quot;color: #ef596f;&quot;&gt;writer&lt;/span&gt;);&lt;/div&gt;&lt;div style=&quot;color: rgb(203, 206, 188); background-color: rgb(20, 24, 36); font-family: &amp;quot;Cascadia Code PL&amp;quot;, &amp;quot;JetBrains Mono&amp;quot;, Consolas, &amp;quot;Courier New&amp;quot;, monospace, Consolas, &amp;quot;Courier New&amp;quot;, monospace; font-size: 14px; line-height: 22px;&quot;&gt;&lt;br&gt;&lt;/div&gt;&lt;div style=&quot;color: rgb(203, 206, 188); background-color: rgb(20, 24, 36); font-family: &amp;quot;Cascadia Code PL&amp;quot;, &amp;quot;JetBrains Mono&amp;quot;, Consolas, &amp;quot;Courier New&amp;quot;, monospace, Consolas, &amp;quot;Courier New&amp;quot;, monospace; font-size: 14px; line-height: 22px;&quot;&gt;&lt;div style=&quot;line-height: 22px;&quot;&gt;var &lt;span style=&quot;color: #ef596f;&quot;&gt;result&lt;/span&gt; &lt;span style=&quot;color: #2bbac5;&quot;&gt;=&lt;/span&gt; &lt;span style=&quot;color: #e5c07b;&quot;&gt;this&lt;/span&gt;.&lt;span style=&quot;color: #61afef;font-weight: bold;&quot;&gt;processRow&lt;/span&gt;(&lt;span style=&quot;color: rgb(239, 89, 111); font-style: italic;&quot;&gt;...&lt;/span&gt;);&lt;/div&gt;&lt;/div&gt;&lt;div style=&quot;color: rgb(203, 206, 188); background-color: rgb(20, 24, 36); font-family: &amp;quot;Cascadia Code PL&amp;quot;, &amp;quot;JetBrains Mono&amp;quot;, Consolas, &amp;quot;Courier New&amp;quot;, monospace, Consolas, &amp;quot;Courier New&amp;quot;, monospace; font-size: 14px; line-height: 22px;&quot;&gt;&lt;br&gt;&lt;/div&gt;&lt;div style=&quot;color: rgb(203, 206, 188); background-color: rgb(20, 24, 36); font-family: &amp;quot;Cascadia Code PL&amp;quot;, &amp;quot;JetBrains Mono&amp;quot;, Consolas, &amp;quot;Courier New&amp;quot;, monospace, Consolas, &amp;quot;Courier New&amp;quot;, monospace; font-size: 14px; line-height: 22px;&quot;&gt;&lt;div style=&quot;line-height: 22px;&quot;&gt;&lt;div style=&quot;line-height: 22px;&quot;&gt;addAll(&lt;span style=&quot;color: rgb(239, 89, 111); font-style: italic;&quot;&gt;tableNode&lt;/span&gt;.&lt;span style=&quot;color: rgb(239, 89, 111);&quot;&gt;positions&lt;/span&gt;, &lt;span style=&quot;color: rgb(239, 89, 111);&quot;&gt;result&lt;/span&gt;.&lt;span style=&quot;color: rgb(239, 89, 111);&quot;&gt;positions&lt;/span&gt;);&lt;br&gt;&lt;/div&gt;&lt;div style=&quot;line-height: 22px;&quot;&gt;&lt;br&gt;&lt;/div&gt;&lt;div style=&quot;line-height: 22px;&quot;&gt;&lt;div style=&quot;line-height: 22px;&quot;&gt;processor.&lt;span style=&quot;color: #61afef;font-weight: bold;&quot;&gt;endRow&lt;/span&gt;(&lt;span style=&quot;color: #ef596f;&quot;&gt;i&lt;/span&gt;, &lt;span style=&quot;color: #e5c07b;&quot;&gt;this&lt;/span&gt;.&lt;span style=&quot;color: #ef596f;&quot;&gt;writer&lt;/span&gt;, &lt;span style=&quot;color: #ef596f;&quot;&gt;result&lt;/span&gt;.&lt;span style=&quot;color: #ef596f;&quot;&gt;pageBreaks&lt;/span&gt;);&lt;/div&gt;&lt;div style=&quot;line-height: 22px;&quot;&gt;&lt;div style=&quot;line-height: 22px;&quot;&gt;processor.&lt;span style=&quot;color: #61afef;font-weight: bold;&quot;&gt;endTable&lt;/span&gt;(&lt;span style=&quot;color: #e5c07b;&quot;&gt;this&lt;/span&gt;.&lt;span style=&quot;color: #ef596f;&quot;&gt;writer&lt;/span&gt;);&lt;/div&gt;&lt;/div&gt;&lt;/div&gt;&lt;/div&gt;&lt;/div&gt;" style="whiteSpace=wrap;html=1;rounded=1;sketch=1;jiggle=2;curveFitting=1;strokeColor=default;fontFamily=Lucida Console;fontSize=12;fontColor=default;fillColor=none;gradientColor=none;verticalAlign=top;align=left;spacing=15;arcSize=5;" parent="1" vertex="1">
                    <mxGeometry x="1090" y="2480" width="490" height="360" as="geometry"/>
                </mxCell>
                <mxCell id="XVa0OCVXgA-f_FIXLsMd-162" value="&lt;div style=&quot;color: rgb(203, 206, 188); background-color: rgb(20, 24, 36); font-family: &amp;quot;Cascadia Code PL&amp;quot;, &amp;quot;JetBrains Mono&amp;quot;, Consolas, &amp;quot;Courier New&amp;quot;, monospace, Consolas, &amp;quot;Courier New&amp;quot;, monospace; font-size: 14px; line-height: 22px;&quot;&gt;LayoutBuilder.&lt;span style=&quot;color: #ef596f;&quot;&gt;prototype&lt;/span&gt;.&lt;span style=&quot;color: #61afef;font-weight: bold;&quot;&gt;processColumns&lt;/span&gt;(&lt;span style=&quot;color: #ef596f;font-style: italic;&quot;&gt;columnNode&lt;/span&gt;)&lt;/div&gt;&lt;br&gt;&lt;br&gt;&lt;div style=&quot;color: rgb(203, 206, 188); background-color: rgb(20, 24, 36); font-family: &amp;quot;Cascadia Code PL&amp;quot;, &amp;quot;JetBrains Mono&amp;quot;, Consolas, &amp;quot;Courier New&amp;quot;, monospace, Consolas, &amp;quot;Courier New&amp;quot;, monospace; font-size: 14px; line-height: 22px;&quot;&gt;var &lt;span style=&quot;color: #ef596f;&quot;&gt;columns&lt;/span&gt; &lt;span style=&quot;color: #2bbac5;&quot;&gt;=&lt;/span&gt; &lt;span style=&quot;color: #ef596f;font-style: italic;&quot;&gt;columnNode&lt;/span&gt;.&lt;span style=&quot;color: #ef596f;&quot;&gt;columns&lt;/span&gt;;&lt;/div&gt;&lt;div style=&quot;color: rgb(203, 206, 188); background-color: rgb(20, 24, 36); font-family: &amp;quot;Cascadia Code PL&amp;quot;, &amp;quot;JetBrains Mono&amp;quot;, Consolas, &amp;quot;Courier New&amp;quot;, monospace, Consolas, &amp;quot;Courier New&amp;quot;, monospace; line-height: 22px;&quot;&gt;&lt;div style=&quot;font-size: 14px; line-height: 22px;&quot;&gt;var &lt;span style=&quot;color: #ef596f;&quot;&gt;availableWidth&lt;/span&gt; &lt;span style=&quot;color: #2bbac5;&quot;&gt;=&lt;/span&gt; &lt;span style=&quot;color: #e5c07b;&quot;&gt;this&lt;/span&gt;.&lt;span style=&quot;color: #e5c07b;&quot;&gt;writer&lt;/span&gt;.&lt;span style=&quot;color: #61afef;font-weight: bold;&quot;&gt;context&lt;/span&gt;().&lt;span style=&quot;color: #ef596f;&quot;&gt;availableWidth&lt;/span&gt;;&lt;/div&gt;&lt;div style=&quot;font-size: 14px; line-height: 22px;&quot;&gt;&lt;br&gt;&lt;/div&gt;&lt;div style=&quot;font-size: 14px; line-height: 22px;&quot;&gt;&lt;div style=&quot;line-height: 22px;&quot;&gt;ColumnCalculator.&lt;span style=&quot;color: #61afef;font-weight: bold;&quot;&gt;buildColumnWidths&lt;/span&gt;(&lt;span style=&quot;color: #ef596f;&quot;&gt;columns&lt;/span&gt;, &lt;span style=&quot;color: #ef596f;&quot;&gt;availableWidth&lt;/span&gt;);&lt;/div&gt;&lt;div style=&quot;line-height: 22px;&quot;&gt;&lt;div style=&quot;line-height: 22px;&quot;&gt;&lt;div&gt;var &lt;span style=&quot;color: #ef596f;&quot;&gt;result&lt;/span&gt; &lt;span style=&quot;color: #2bbac5;&quot;&gt;=&lt;/span&gt; &lt;span style=&quot;color: #e5c07b;&quot;&gt;this&lt;/span&gt;.&lt;span style=&quot;color: #61afef;font-weight: bold;&quot;&gt;processRow&lt;/span&gt;(&lt;span style=&quot;color: #ef596f;&quot;&gt;columns&lt;/span&gt;, &lt;span style=&quot;color: #ef596f;&quot;&gt;columns&lt;/span&gt;, &lt;span style=&quot;color: #ef596f;&quot;&gt;gaps&lt;/span&gt;);&lt;/div&gt;&lt;div&gt;&lt;span style=&quot;color: #61afef;font-weight: bold;&quot;&gt;addAll&lt;/span&gt;(&lt;span style=&quot;color: #ef596f;font-style: italic;&quot;&gt;columnNode&lt;/span&gt;.&lt;span style=&quot;color: #ef596f;&quot;&gt;positions&lt;/span&gt;, &lt;span style=&quot;color: #ef596f;&quot;&gt;result&lt;/span&gt;.&lt;span style=&quot;color: #ef596f;&quot;&gt;positions&lt;/span&gt;);&lt;/div&gt;&lt;/div&gt;&lt;/div&gt;&lt;/div&gt;&lt;/div&gt;" style="whiteSpace=wrap;html=1;rounded=1;sketch=1;jiggle=2;curveFitting=1;strokeColor=default;fontFamily=Lucida Console;fontSize=12;fontColor=default;fillColor=none;gradientColor=none;verticalAlign=top;align=left;spacing=15;arcSize=7;" parent="1" vertex="1">
                    <mxGeometry x="460" y="2480" width="540" height="230" as="geometry"/>
                </mxCell>
                <mxCell id="XVa0OCVXgA-f_FIXLsMd-165" style="edgeStyle=orthogonalEdgeStyle;rounded=0;orthogonalLoop=1;jettySize=auto;html=1;exitX=0.471;exitY=0.813;exitDx=0;exitDy=0;entryX=0.75;entryY=0;entryDx=0;entryDy=0;fontFamily=Lucida Console;fontSize=12;fontColor=default;exitPerimeter=0;dashed=1;" parent="1" source="XVa0OCVXgA-f_FIXLsMd-156" target="XVa0OCVXgA-f_FIXLsMd-159" edge="1">
                    <mxGeometry relative="1" as="geometry">
                        <Array as="points">
                            <mxPoint x="1458" y="1630"/>
                        </Array>
                    </mxGeometry>
                </mxCell>
                <mxCell id="XVa0OCVXgA-f_FIXLsMd-176" value="traversalTracker.js" style="whiteSpace=wrap;html=1;rounded=1;sketch=1;jiggle=2;curveFitting=1;strokeColor=default;fontFamily=Lucida Console;fontSize=12;fontColor=default;fillColor=none;gradientColor=none;verticalAlign=top;spacing=15;" parent="1" vertex="1">
                    <mxGeometry x="1800" y="80" width="230" height="70" as="geometry"/>
                </mxCell>
                <mxCell id="XVa0OCVXgA-f_FIXLsMd-178" value="" style="edgeStyle=none;orthogonalLoop=1;jettySize=auto;html=1;rounded=0;fontFamily=Lucida Console;fontSize=12;fontColor=default;dashed=1;" parent="1" edge="1">
                    <mxGeometry width="80" relative="1" as="geometry">
                        <mxPoint x="-20" y="216" as="sourcePoint"/>
                        <mxPoint x="390" y="216" as="targetPoint"/>
                        <Array as="points"/>
                    </mxGeometry>
                </mxCell>
                <mxCell id="XVa0OCVXgA-f_FIXLsMd-179" value="" style="edgeStyle=none;orthogonalLoop=1;jettySize=auto;html=1;rounded=0;fontFamily=Lucida Console;fontSize=12;fontColor=default;dashed=1;" parent="1" edge="1">
                    <mxGeometry width="80" relative="1" as="geometry">
                        <mxPoint x="1100" y="270" as="sourcePoint"/>
                        <mxPoint x="1790" y="250" as="targetPoint"/>
                        <Array as="points"/>
                    </mxGeometry>
                </mxCell>
                <mxCell id="XVa0OCVXgA-f_FIXLsMd-180" value="docPreprocessor.js" style="whiteSpace=wrap;html=1;rounded=1;sketch=1;jiggle=2;curveFitting=1;strokeColor=default;fontFamily=Lucida Console;fontSize=12;fontColor=default;fillColor=none;gradientColor=none;verticalAlign=top;align=center;spacing=15;" parent="1" vertex="1">
                    <mxGeometry x="1800" y="220" width="230" height="60" as="geometry"/>
                </mxCell>
                <mxCell id="XVa0OCVXgA-f_FIXLsMd-182" value="" style="edgeStyle=none;orthogonalLoop=1;jettySize=auto;html=1;rounded=0;dashed=1;labelBackgroundColor=default;strokeColor=default;fontFamily=Lucida Console;fontSize=12;fontColor=default;endArrow=classic;shape=connector;" parent="1" edge="1">
                    <mxGeometry width="80" relative="1" as="geometry">
                        <mxPoint x="1040" y="290" as="sourcePoint"/>
                        <mxPoint x="1790" y="350" as="targetPoint"/>
                        <Array as="points"/>
                    </mxGeometry>
                </mxCell>
                <mxCell id="XVa0OCVXgA-f_FIXLsMd-210" style="edgeStyle=none;shape=connector;rounded=0;orthogonalLoop=1;jettySize=auto;html=1;exitX=1;exitY=0.75;exitDx=0;exitDy=0;entryX=0;entryY=0.5;entryDx=0;entryDy=0;dashed=1;labelBackgroundColor=default;strokeColor=default;fontFamily=Lucida Console;fontSize=12;fontColor=default;endArrow=classic;" parent="1" source="XVa0OCVXgA-f_FIXLsMd-184" target="XVa0OCVXgA-f_FIXLsMd-209" edge="1">
                    <mxGeometry relative="1" as="geometry"/>
                </mxCell>
                <mxCell id="XVa0OCVXgA-f_FIXLsMd-213" style="edgeStyle=none;shape=connector;rounded=0;orthogonalLoop=1;jettySize=auto;html=1;exitX=1;exitY=0.5;exitDx=0;exitDy=0;entryX=0;entryY=0.5;entryDx=0;entryDy=0;dashed=1;labelBackgroundColor=default;strokeColor=default;fontFamily=Lucida Console;fontSize=12;fontColor=default;endArrow=classic;" parent="1" source="XVa0OCVXgA-f_FIXLsMd-184" target="XVa0OCVXgA-f_FIXLsMd-212" edge="1">
                    <mxGeometry relative="1" as="geometry"/>
                </mxCell>
                <mxCell id="XVa0OCVXgA-f_FIXLsMd-222" style="edgeStyle=none;shape=connector;rounded=0;orthogonalLoop=1;jettySize=auto;html=1;exitX=1;exitY=1;exitDx=0;exitDy=0;entryX=0.5;entryY=0;entryDx=0;entryDy=0;dashed=1;labelBackgroundColor=default;strokeColor=default;fontFamily=Lucida Console;fontSize=12;fontColor=default;endArrow=classic;" parent="1" source="XVa0OCVXgA-f_FIXLsMd-184" target="XVa0OCVXgA-f_FIXLsMd-197" edge="1">
                    <mxGeometry relative="1" as="geometry"/>
                </mxCell>
                <mxCell id="XVa0OCVXgA-f_FIXLsMd-184" value="docMeasure.js" style="whiteSpace=wrap;html=1;rounded=1;sketch=1;jiggle=2;curveFitting=1;strokeColor=default;fontFamily=Lucida Console;fontSize=12;fontColor=default;fillColor=none;gradientColor=none;verticalAlign=top;align=center;spacing=15;" parent="1" vertex="1">
                    <mxGeometry x="1800" y="330" width="230" height="60" as="geometry"/>
                </mxCell>
                <mxCell id="XVa0OCVXgA-f_FIXLsMd-186" value="" style="edgeStyle=none;orthogonalLoop=1;jettySize=auto;html=1;rounded=0;dashed=1;labelBackgroundColor=default;strokeColor=default;fontFamily=Lucida Console;fontSize=12;fontColor=default;endArrow=classic;shape=connector;exitX=0.015;exitY=0.705;exitDx=0;exitDy=0;exitPerimeter=0;entryX=0.018;entryY=0.028;entryDx=0;entryDy=0;entryPerimeter=0;" parent="1" source="XVa0OCVXgA-f_FIXLsMd-134" target="XVa0OCVXgA-f_FIXLsMd-148" edge="1">
                    <mxGeometry width="80" relative="1" as="geometry">
                        <mxPoint x="510" y="770" as="sourcePoint"/>
                        <mxPoint x="590" y="770" as="targetPoint"/>
                        <Array as="points">
                            <mxPoint x="600" y="830"/>
                            <mxPoint x="600" y="1060"/>
                        </Array>
                    </mxGeometry>
                </mxCell>
                <mxCell id="XVa0OCVXgA-f_FIXLsMd-187" value="" style="edgeStyle=none;orthogonalLoop=1;jettySize=auto;html=1;rounded=0;dashed=1;labelBackgroundColor=default;strokeColor=default;fontFamily=Lucida Console;fontSize=12;fontColor=default;endArrow=classic;shape=connector;exitX=0.493;exitY=0.409;exitDx=0;exitDy=0;exitPerimeter=0;" parent="1" source="XVa0OCVXgA-f_FIXLsMd-134" edge="1">
                    <mxGeometry width="80" relative="1" as="geometry">
                        <mxPoint x="1710" y="690" as="sourcePoint"/>
                        <mxPoint x="1790" y="680" as="targetPoint"/>
                        <Array as="points"/>
                    </mxGeometry>
                </mxCell>
                <mxCell id="XVa0OCVXgA-f_FIXLsMd-201" style="edgeStyle=none;shape=connector;rounded=0;orthogonalLoop=1;jettySize=auto;html=1;entryX=0;entryY=0.5;entryDx=0;entryDy=0;dashed=1;labelBackgroundColor=default;strokeColor=default;fontFamily=Lucida Console;fontSize=12;fontColor=default;endArrow=classic;" parent="1" source="XVa0OCVXgA-f_FIXLsMd-188" target="XVa0OCVXgA-f_FIXLsMd-200" edge="1">
                    <mxGeometry relative="1" as="geometry"/>
                </mxCell>
                <mxCell id="XVa0OCVXgA-f_FIXLsMd-188" value="pageElementWriter.js" style="whiteSpace=wrap;html=1;rounded=1;sketch=1;jiggle=2;curveFitting=1;strokeColor=default;fontFamily=Lucida Console;fontSize=12;fontColor=default;fillColor=none;gradientColor=none;verticalAlign=top;align=center;spacing=15;" parent="1" vertex="1">
                    <mxGeometry x="1800" y="650" width="230" height="60" as="geometry"/>
                </mxCell>
                <mxCell id="XVa0OCVXgA-f_FIXLsMd-189" value="" style="edgeStyle=none;orthogonalLoop=1;jettySize=auto;html=1;rounded=0;dashed=1;labelBackgroundColor=default;strokeColor=default;fontFamily=Lucida Console;fontSize=12;fontColor=default;endArrow=classic;shape=connector;exitX=0.403;exitY=0.455;exitDx=0;exitDy=0;exitPerimeter=0;" parent="1" source="XVa0OCVXgA-f_FIXLsMd-134" edge="1">
                    <mxGeometry width="80" relative="1" as="geometry">
                        <mxPoint x="2060" y="890" as="sourcePoint"/>
                        <mxPoint x="1790" y="800" as="targetPoint"/>
                        <Array as="points"/>
                    </mxGeometry>
                </mxCell>
                <mxCell id="XVa0OCVXgA-f_FIXLsMd-199" style="edgeStyle=none;shape=connector;rounded=0;orthogonalLoop=1;jettySize=auto;html=1;exitX=1;exitY=0.5;exitDx=0;exitDy=0;entryX=1;entryY=0.5;entryDx=0;entryDy=0;dashed=1;labelBackgroundColor=default;strokeColor=default;fontFamily=Lucida Console;fontSize=12;fontColor=default;endArrow=classic;" parent="1" source="XVa0OCVXgA-f_FIXLsMd-190" target="XVa0OCVXgA-f_FIXLsMd-176" edge="1">
                    <mxGeometry relative="1" as="geometry">
                        <Array as="points">
                            <mxPoint x="2720" y="800"/>
                            <mxPoint x="2720" y="115"/>
                        </Array>
                    </mxGeometry>
                </mxCell>
                <mxCell id="XVa0OCVXgA-f_FIXLsMd-190" value="documentContext.js" style="whiteSpace=wrap;html=1;rounded=1;sketch=1;jiggle=2;curveFitting=1;strokeColor=default;fontFamily=Lucida Console;fontSize=12;fontColor=default;fillColor=none;gradientColor=none;verticalAlign=top;align=center;spacing=15;" parent="1" vertex="1">
                    <mxGeometry x="1800" y="770" width="230" height="60" as="geometry"/>
                </mxCell>
                <mxCell id="XVa0OCVXgA-f_FIXLsMd-191" value="" style="edgeStyle=none;orthogonalLoop=1;jettySize=auto;html=1;rounded=0;dashed=1;labelBackgroundColor=default;strokeColor=default;fontFamily=Lucida Console;fontSize=12;fontColor=default;endArrow=classic;shape=connector;exitX=0.837;exitY=0.278;exitDx=0;exitDy=0;exitPerimeter=0;" parent="1" source="XVa0OCVXgA-f_FIXLsMd-159" edge="1">
                    <mxGeometry width="80" relative="1" as="geometry">
                        <mxPoint x="1770" y="2550" as="sourcePoint"/>
                        <mxPoint x="1790" y="2580" as="targetPoint"/>
                        <Array as="points"/>
                    </mxGeometry>
                </mxCell>
                <mxCell id="XVa0OCVXgA-f_FIXLsMd-193" value="tableProcessor.js" style="whiteSpace=wrap;html=1;rounded=1;sketch=1;jiggle=2;curveFitting=1;strokeColor=default;fontFamily=Lucida Console;fontSize=12;fontColor=default;fillColor=none;gradientColor=none;verticalAlign=top;align=center;spacing=15;" parent="1" vertex="1">
                    <mxGeometry x="1800" y="2550" width="230" height="60" as="geometry"/>
                </mxCell>
                <mxCell id="XVa0OCVXgA-f_FIXLsMd-194" value="" style="edgeStyle=none;orthogonalLoop=1;jettySize=auto;html=1;rounded=0;dashed=1;labelBackgroundColor=default;strokeColor=default;fontFamily=Lucida Console;fontSize=12;fontColor=default;endArrow=classic;shape=connector;exitX=0.019;exitY=0.652;exitDx=0;exitDy=0;exitPerimeter=0;" parent="1" source="XVa0OCVXgA-f_FIXLsMd-162" edge="1">
                    <mxGeometry width="80" relative="1" as="geometry">
                        <mxPoint x="430" y="2670" as="sourcePoint"/>
                        <mxPoint x="170" y="2630" as="targetPoint"/>
                        <Array as="points"/>
                    </mxGeometry>
                </mxCell>
                <mxCell id="XVa0OCVXgA-f_FIXLsMd-195" value="columnCalculator.js (*)" style="whiteSpace=wrap;html=1;rounded=1;sketch=1;jiggle=2;curveFitting=1;strokeColor=default;fontFamily=Lucida Console;fontSize=12;fontColor=default;fillColor=none;gradientColor=none;verticalAlign=top;align=center;spacing=15;" parent="1" vertex="1">
                    <mxGeometry x="-68" y="2600" width="230" height="60" as="geometry"/>
                </mxCell>
                <mxCell id="XVa0OCVXgA-f_FIXLsMd-197" value="textTools.js" style="whiteSpace=wrap;html=1;rounded=1;sketch=1;jiggle=2;curveFitting=1;strokeColor=default;fontFamily=Lucida Console;fontSize=12;fontColor=default;fillColor=none;gradientColor=none;verticalAlign=top;align=center;spacing=15;" parent="1" vertex="1">
                    <mxGeometry x="1960" y="490" width="230" height="60" as="geometry"/>
                </mxCell>
                <mxCell id="XVa0OCVXgA-f_FIXLsMd-203" style="edgeStyle=none;shape=connector;rounded=0;orthogonalLoop=1;jettySize=auto;html=1;exitX=0;exitY=1;exitDx=0;exitDy=0;entryX=1;entryY=0;entryDx=0;entryDy=0;dashed=1;labelBackgroundColor=default;strokeColor=default;fontFamily=Lucida Console;fontSize=12;fontColor=default;endArrow=classic;" parent="1" source="XVa0OCVXgA-f_FIXLsMd-200" target="XVa0OCVXgA-f_FIXLsMd-190" edge="1">
                    <mxGeometry relative="1" as="geometry"/>
                </mxCell>
                <mxCell id="XVa0OCVXgA-f_FIXLsMd-207" style="edgeStyle=none;shape=connector;rounded=0;orthogonalLoop=1;jettySize=auto;html=1;entryX=0;entryY=0.5;entryDx=0;entryDy=0;dashed=1;labelBackgroundColor=default;strokeColor=default;fontFamily=Lucida Console;fontSize=12;fontColor=default;endArrow=classic;" parent="1" source="XVa0OCVXgA-f_FIXLsMd-200" target="XVa0OCVXgA-f_FIXLsMd-206" edge="1">
                    <mxGeometry relative="1" as="geometry"/>
                </mxCell>
                <mxCell id="XVa0OCVXgA-f_FIXLsMd-200" value="elementWriter.js" style="whiteSpace=wrap;html=1;rounded=1;sketch=1;jiggle=2;curveFitting=1;strokeColor=default;fontFamily=Lucida Console;fontSize=12;fontColor=default;fillColor=none;gradientColor=none;verticalAlign=top;align=center;spacing=15;" parent="1" vertex="1">
                    <mxGeometry x="2130" y="650" width="230" height="60" as="geometry"/>
                </mxCell>
                <mxCell id="XVa0OCVXgA-f_FIXLsMd-206" value="line.js" style="whiteSpace=wrap;html=1;rounded=1;sketch=1;jiggle=2;curveFitting=1;strokeColor=default;fontFamily=Lucida Console;fontSize=12;fontColor=default;fillColor=none;gradientColor=none;verticalAlign=top;align=center;spacing=15;" parent="1" vertex="1">
                    <mxGeometry x="2450" y="650" width="230" height="60" as="geometry"/>
                </mxCell>
                <mxCell id="XVa0OCVXgA-f_FIXLsMd-209" value="styleContextStack.js" style="whiteSpace=wrap;html=1;rounded=1;sketch=1;jiggle=2;curveFitting=1;strokeColor=default;fontFamily=Lucida Console;fontSize=12;fontColor=default;fillColor=none;gradientColor=none;verticalAlign=top;align=center;spacing=15;" parent="1" vertex="1">
                    <mxGeometry x="2140" y="390" width="230" height="60" as="geometry"/>
                </mxCell>
                <mxCell id="XVa0OCVXgA-f_FIXLsMd-212" value="columnCalculator.js (*)" style="whiteSpace=wrap;html=1;rounded=1;sketch=1;jiggle=2;curveFitting=1;strokeColor=default;fontFamily=Lucida Console;fontSize=12;fontColor=default;fillColor=none;gradientColor=none;verticalAlign=top;align=center;spacing=15;" parent="1" vertex="1">
                    <mxGeometry x="2140" y="290" width="230" height="60" as="geometry"/>
                </mxCell>
                <mxCell id="XVa0OCVXgA-f_FIXLsMd-219" value="" style="edgeStyle=none;orthogonalLoop=1;jettySize=auto;html=1;rounded=0;dashed=1;labelBackgroundColor=default;strokeColor=default;fontFamily=Lucida Console;fontSize=12;fontColor=default;endArrow=classic;shape=connector;exitX=1.001;exitY=0.143;exitDx=0;exitDy=0;exitPerimeter=0;entryX=0;entryY=0.75;entryDx=0;entryDy=0;" parent="1" source="XVa0OCVXgA-f_FIXLsMd-127" target="XVa0OCVXgA-f_FIXLsMd-209" edge="1">
                    <mxGeometry width="80" relative="1" as="geometry">
                        <mxPoint x="1720" y="490" as="sourcePoint"/>
                        <mxPoint x="1800" y="490" as="targetPoint"/>
                        <Array as="points"/>
                    </mxGeometry>
                </mxCell>
                <mxCell id="XVa0OCVXgA-f_FIXLsMd-220" value="" style="edgeStyle=none;orthogonalLoop=1;jettySize=auto;html=1;rounded=0;dashed=1;labelBackgroundColor=default;strokeColor=default;fontFamily=Lucida Console;fontSize=12;fontColor=default;endArrow=classic;shape=connector;exitX=1.001;exitY=0.309;exitDx=0;exitDy=0;exitPerimeter=0;entryX=0.5;entryY=1;entryDx=0;entryDy=0;" parent="1" source="XVa0OCVXgA-f_FIXLsMd-127" target="XVa0OCVXgA-f_FIXLsMd-206" edge="1">
                    <mxGeometry width="80" relative="1" as="geometry">
                        <mxPoint x="1660" y="920" as="sourcePoint"/>
                        <mxPoint x="2572.1052631578946" y="916" as="targetPoint"/>
                        <Array as="points">
                            <mxPoint x="2565" y="916"/>
                        </Array>
                    </mxGeometry>
                </mxCell>
                <mxCell id="XVa0OCVXgA-f_FIXLsMd-221" value="" style="edgeStyle=none;orthogonalLoop=1;jettySize=auto;html=1;rounded=0;dashed=1;labelBackgroundColor=default;strokeColor=default;fontFamily=Lucida Console;fontSize=12;fontColor=default;endArrow=classic;shape=connector;exitX=0.998;exitY=0.172;exitDx=0;exitDy=0;exitPerimeter=0;entryX=0;entryY=0.5;entryDx=0;entryDy=0;" parent="1" source="XVa0OCVXgA-f_FIXLsMd-127" target="XVa0OCVXgA-f_FIXLsMd-197" edge="1">
                    <mxGeometry width="80" relative="1" as="geometry">
                        <mxPoint x="1690" y="560" as="sourcePoint"/>
                        <mxPoint x="1770" y="560" as="targetPoint"/>
                        <Array as="points"/>
                    </mxGeometry>
                </mxCell>
            </root>
        </mxGraphModel>
    </diagram>
</mxfile>